<?xml version="1.0" encoding="utf-8"?>
<!-- Generator: Adobe Illustrator 22.1.0, SVG Export Plug-In . SVG Version: 6.00 Build 0)  -->
<svg version="1.1" id="Layer_1" xmlns="http://www.w3.org/2000/svg" xmlns:xlink="http://www.w3.org/1999/xlink" x="0px" y="0px"
	 viewBox="0 0 128 128" style="enable-background:new 0 0 128 128;" xml:space="preserve">
<style type="text/css">
	.st0{fill:#F2F5F7;}
</style>
<path class="st0" d="M12.5,89.2c10.2-9.2,18.1-3,30.6-18.1c2.9-3.6,5.3-11.3,8.9-14.5c2.4-2.4,7.6-4.5,12.1-6.1
	c1.7-1.5,3.2-2.5,3.9-3.4c-2-1.8-6.8-3-10.6-3.6c-7.7,2.8-14.1,10.5-17.1,18C32.4,81.5,17.2,76.2,12.5,89.2z M1.8,66.1
	c5.5,5.1,12.2,3.4,17.8-0.2c12.5-9,12-25.3,32.6-25.1c4.8,0,15.7,2,18,6.2c-2,5.7-19.8,8.5-18.6,29.9c0.8,13.4,1.5,21.8-7.5,32.8
	C64.9,98,53.5,78.4,62.3,65.2c1.8-2,13.1-10.7,14.8-10.9c1.1,1-5,12.4-5.7,15.5c-5.9,22.6,9.5,20-13.5,47.2
	c31.8-19.8,13.8-27.3,21.3-44c0.6-2.5,7.5-15.3,8.6-15.7c0,0-1.1,11.2,3.5,19.5c4.1,7,0.9,9.5-5.1,16.4c-4.3,5.4-7.7,11.1-5.7,18.1
	c1.2,5.3,10.7,11.8,15.5,13.1c-2.3-2.9-9.7-7.6-10.7-13.1c-1.3-7.4,3.7-11.1,8.4-15.9c15.7-15.4,1-22,2.7-32.8
	c3.1-16,18.7-6.9,26.5-23.7c5.1-11.1,2-23.9-8.9-31.3c-10.2-6.9-24.4-4.7-32.2,4.8C73.3,22.7,82.7,36.7,60.2,33
	c-12-1.8-24.2,1.7-31.6,11.8c-4.1,5.7-5,11.1-10.8,17C9.8,69.6,3.1,65.2,1.8,66.1z M114.2,27.5c0,7.5-6.1,13.7-13.7,13.7
	S86.8,35,86.8,27.5s6.1-13.7,13.7-13.7S114.2,20,114.2,27.5z"/>
</svg>
