<?xml version="1.0" encoding="utf-8"?>
<!-- Generator: Adobe Illustrator 22.0.1, SVG Export Plug-In . SVG Version: 6.00 Build 0)  -->
<svg version="1.1" id="Layer_1" xmlns="http://www.w3.org/2000/svg" xmlns:xlink="http://www.w3.org/1999/xlink" x="0px" y="0px"
	 viewBox="0 0 496.7 274.4" style="enable-background:new 0 0 496.7 274.4;" xml:space="preserve">
<style type="text/css">
	.st0{font-family:'Arial-Black';}
	.st1{font-size:153.9627px;}
	.st2{fill:none;stroke:#FFFFFF;stroke-width:5.0739;stroke-miterlimit:10;}
	.st3{font-family:'Arial-BoldMT';}
	.st4{font-size:48.598px;}
	.st5{stroke:#FFFFFF;stroke-width:4;stroke-miterlimit:10;}
	.st6{fill:#FFFFFF;stroke:#FFFFFF;stroke-width:3.4771;stroke-miterlimit:10;}
	.st7{font-size:147.6956px;}
	.st8{fill:none;stroke:#FFFFFF;stroke-width:4;stroke-miterlimit:10;}
	.st9{fill:#FFFFFF;}
</style>
<text transform="matrix(1 0 0 1 289.9781 123.0864)" class="st0 st1">T</text>
<text transform="matrix(1 0 0 1 289.9781 123.0864)" class="st2 st0 st1">T</text>
<g>
	<text transform="matrix(1 0 0 1 222.3643 169.2979)" class="st3 st4">DEPLOYER</text>
</g>
<g>
	<g>
		<path class="st5" d="M8,96.9c32.2-7.9,41.8,14.4,85.5-3.1c10.3-4.3,24.3-17.8,35.6-20.4c7.7-2.4,21.1-0.8,32.8,1
			c5.3-1.3,9.6-1.6,12.1-2.8c-2.2-6-10.8-14.2-18.3-19.9c-19.7-2.9-42,5.9-56.9,18.6C58.9,103.4,32.9,74.6,8,96.9z"/>
		<path class="st5" d="M12,35.5c5.8,17.2,22,21.3,37.9,20c36.9-4.7,54.5-39.7,97.9-15.6c10.1,5.3,30.9,22.3,31,33.9
			c-10.7,9.7-51.7-4.8-73.7,42c-13.6,29.3-21.9,47.7-53.6,60.8c57.3-1,55.8-55.6,89.7-73.4c6-2.2,40.1-7.6,43.8-6.1
			c1.2,3.4-25,20.5-29.8,26.2c-38.4,41-2.9,53.3-82.8,84.3c89.8-5.2,60.3-41.9,95.5-68.6c4.1-4.8,33.4-23.8,36.3-23.1
			c0,0-15.1,22.4-15.1,45.4c0.6,19.5-9.1,21-29.6,28.9c-15.4,6.5-28.9,14.6-33,31.7c-3.5,12.6,9.1,37.3,17.7,45.4
			c-1.6-8.7-11.8-27.3-7.6-40.1c5.7-17.2,20.6-19.3,36.1-24.1c51.1-14.5,27.4-45.5,43.5-66.2c25.1-30.3,47.4,6.9,83.5-19.7
			c23.6-17.5,31.8-48.3,17.2-76.4c-13.6-26.3-46.3-38-73.8-26.9c-30,12-25.9,52.4-69.3,18.7C150.3,15,120.6,8.5,93.2,21.2
			C77.9,28.6,69.8,39,50.9,44.9C24.9,52.1,15.6,35.2,12,35.5z"/>
	</g>
	<circle class="st6" cx="265.8" cy="69.2" r="25.4"/>
</g>
<g>
	<text transform="matrix(1 0 0 1 109.4073 119.7109)" class="st0 st7">D</text>
	<text transform="matrix(1 0 0 1 109.4073 119.7109)" class="st8 st0 st7">D</text>
</g>
<path class="st9" d="M154.2,38.5V95c0,0,27.8,6.5,29-14S192.2,35,154.2,38.5z"/>
</svg>
